<svg width="32.000000" height="32.000000" viewBox="0 0 32 32" fill="none" xmlns="http://www.w3.org/2000/svg" xmlns:xlink="http://www.w3.org/1999/xlink">
	<desc>
			Created with Pixso.
	</desc>
	<defs>
		<clipPath id="clip31_455">
			<rect width="32.000000" height="32.000000" fill="white" fill-opacity="0"/>
		</clipPath>
	</defs>
	<g clip-path="url(#clip31_455)">
		<path d="M16 23.9999C11.5818 23.9999 8 20.4182 8 15.9999C8 11.5817 11.5818 7.99988 16 7.99988C20.4183 7.99988 24 11.5817 24 15.9999C24 20.4182 20.4183 23.9999 16 23.9999L16 23.9999M16 1.33325L16 3.99988M16 27.9999L16 30.6666M30.6667 15.9999L28 15.9999M4 15.9999L1.33337 15.9999M26.371 5.62903L24.4854 7.51465M7.51477 24.4852L5.62915 26.3708M26.371 26.3708L24.4854 24.4852M7.51477 7.51465L5.62915 5.62903" stroke="#FFFFFF" stroke-opacity="1.000000" stroke-width="1.500000"/>
	</g>
</svg>
